<?xml version="1.0" encoding="UTF-8" standalone="no"?>
<!DOCTYPE svg PUBLIC "-//W3C//DTD SVG 1.1//EN"
 "http://www.w3.org/Graphics/SVG/1.1/DTD/svg11.dtd">
<!-- Generated by graphviz version 2.38.0 (20140413.2041)
 -->
<!-- Title: G Pages: 1 -->
<svg width="2719pt" height="703pt"
 viewBox="0.00 0.00 2719.00 702.87" xmlns="http://www.w3.org/2000/svg" xmlns:xlink="http://www.w3.org/1999/xlink">
<g id="graph0" class="graph" transform="scale(1 1) rotate(0) translate(4 698.873)">
<title>G</title>
<polygon fill="white" stroke="none" points="-4,4 -4,-698.873 2715,-698.873 2715,4 -4,4"/>
<text text-anchor="middle" x="1355.5" y="-15.4146" font-family="Verdana" font-size="7.00" fill="#000000">Generated by Python Call Graph v1.0.1</text>
<text text-anchor="middle" x="1355.5" y="-6.90732" font-family="Verdana" font-size="7.00" fill="#000000">http://pycallgraph.slowchop.com</text>
<g id="clust1" class="cluster"><title>cluster_kotti</title>
<polygon fill="none" stroke="#000000" stroke-width="2" stroke-opacity="0.800000" points="8,-33.0146 8,-588.212 2703,-588.212 2703,-33.0146 8,-33.0146"/>
<text text-anchor="middle" x="1355.5" y="-576.212" font-family="Verdana" font-size="10.00">kotti</text>
</g>
<g id="clust2" class="cluster"><title>cluster___main__</title>
<polygon fill="none" stroke="#000000" stroke-width="2" stroke-opacity="0.800000" points="1428,-614.719 1428,-686.873 1518,-686.873 1518,-614.719 1428,-614.719"/>
<text text-anchor="middle" x="1473" y="-674.873" font-family="Verdana" font-size="10.00">__main__</text>
</g>
<!-- kotti.security.is_user -->
<g id="node1" class="node"><title>kotti.security.is_user</title>
<polygon fill="#e3e5e5" stroke="#e3e5e5" points="2413.62,-479.551 2324.38,-479.551 2324.38,-443.551 2413.62,-443.551 2413.62,-479.551"/>
<text text-anchor="middle" x="2369" y="-468.712" font-family="Verdana" font-size="7.00" fill="#000000">kotti.security.is_user</text>
<text text-anchor="middle" x="2369" y="-460.205" font-family="Verdana" font-size="7.00" fill="#000000">calls: 1</text>
<text text-anchor="middle" x="2369" y="-451.698" font-family="Verdana" font-size="7.00" fill="#000000">time: 0.000010s</text>
</g>
<!-- kotti.resources.DefaultRootCache.get_root -->
<g id="node2" class="node"><title>kotti.resources.DefaultRootCache.get_root</title>
<polygon fill="#aab8e5" stroke="#aab8e5" points="2278.94,-77.0146 2113.06,-77.0146 2113.06,-41.0146 2278.94,-41.0146 2278.94,-77.0146"/>
<text text-anchor="middle" x="2196" y="-66.1756" font-family="Verdana" font-size="7.00" fill="#000000">kotti.resources.DefaultRootCache.get_root</text>
<text text-anchor="middle" x="2196" y="-57.6683" font-family="Verdana" font-size="7.00" fill="#000000">calls: 1</text>
<text text-anchor="middle" x="2196" y="-49.161" font-family="Verdana" font-size="7.00" fill="#000000">time: 0.466594s</text>
</g>
<!-- kotti.resources.File.__parent__ -->
<g id="node3" class="node"><title>kotti.resources.File.__parent__</title>
<polygon fill="#ccdde5" stroke="#ccdde5" points="2695.08,-560.059 2568.92,-560.059 2568.92,-524.059 2695.08,-524.059 2695.08,-560.059"/>
<text text-anchor="middle" x="2632" y="-549.22" font-family="Verdana" font-size="7.00" fill="#000000">kotti.resources.File.__parent__</text>
<text text-anchor="middle" x="2632" y="-540.712" font-family="Verdana" font-size="7.00" fill="#000000">calls: 4</text>
<text text-anchor="middle" x="2632" y="-532.205" font-family="Verdana" font-size="7.00" fill="#000000">time: 0.141308s</text>
</g>
<!-- kotti.sqla.MutationList.replacer -->
<g id="node4" class="node"><title>kotti.sqla.MutationList.replacer</title>
<polygon fill="#dde4e5" stroke="#dde4e5" points="2552.35,-238.029 2427.65,-238.029 2427.65,-202.029 2552.35,-202.029 2552.35,-238.029"/>
<text text-anchor="middle" x="2490" y="-227.19" font-family="Verdana" font-size="7.00" fill="#000000">kotti.sqla.MutationList.replacer</text>
<text text-anchor="middle" x="2490" y="-218.683" font-family="Verdana" font-size="7.00" fill="#000000">calls: 4</text>
<text text-anchor="middle" x="2490" y="-210.176" font-family="Verdana" font-size="7.00" fill="#000000">time: 0.000070s</text>
</g>
<!-- kotti.security.&lt;genexpr&gt; -->
<g id="node5" class="node"><title>kotti.security.&lt;genexpr&gt;</title>
<polygon fill="#ccdde5" stroke="#ccdde5" points="2367.95,-238.029 2264.05,-238.029 2264.05,-202.029 2367.95,-202.029 2367.95,-238.029"/>
<text text-anchor="middle" x="2316" y="-227.19" font-family="Verdana" font-size="7.00" fill="#000000">kotti.security.&lt;genexpr&gt;</text>
<text text-anchor="middle" x="2316" y="-218.683" font-family="Verdana" font-size="7.00" fill="#000000">calls: 13</text>
<text text-anchor="middle" x="2316" y="-210.176" font-family="Verdana" font-size="7.00" fill="#000000">time: 0.000448s</text>
</g>
<!-- kotti.filedepot.Request.uploaded_file_response -->
<g id="node6" class="node"><title>kotti.filedepot.Request.uploaded_file_response</title>
<polygon fill="#dfe5e5" stroke="#dfe5e5" points="1651.59,-479.551 1470.41,-479.551 1470.41,-443.551 1651.59,-443.551 1651.59,-479.551"/>
<text text-anchor="middle" x="1561" y="-468.712" font-family="Verdana" font-size="7.00" fill="#000000">kotti.filedepot.Request.uploaded_file_response</text>
<text text-anchor="middle" x="1561" y="-460.205" font-family="Verdana" font-size="7.00" fill="#000000">calls: 1</text>
<text text-anchor="middle" x="1561" y="-451.698" font-family="Verdana" font-size="7.00" fill="#000000">time: 0.030320s</text>
</g>
<!-- kotti.filedepot.StoredFileResponse.__init__ -->
<g id="node23" class="node"><title>kotti.filedepot.StoredFileResponse.__init__</title>
<polygon fill="#e2e5e5" stroke="#e2e5e5" points="1496.82,-399.044 1329.18,-399.044 1329.18,-363.044 1496.82,-363.044 1496.82,-399.044"/>
<text text-anchor="middle" x="1413" y="-388.205" font-family="Verdana" font-size="7.00" fill="#000000">kotti.filedepot.StoredFileResponse.__init__</text>
<text text-anchor="middle" x="1413" y="-379.698" font-family="Verdana" font-size="7.00" fill="#000000">calls: 1</text>
<text text-anchor="middle" x="1413" y="-371.19" font-family="Verdana" font-size="7.00" fill="#000000">time: 0.007179s</text>
</g>
<!-- kotti.filedepot.Request.uploaded_file_response&#45;&gt;kotti.filedepot.StoredFileResponse.__init__ -->
<g id="edge5" class="edge"><title>kotti.filedepot.Request.uploaded_file_response&#45;&gt;kotti.filedepot.StoredFileResponse.__init__</title>
<path fill="none" stroke="#b0b2b2" d="M1528.89,-443.516C1506.97,-431.891 1477.75,-416.389 1454.13,-403.861"/>
<polygon fill="#b0b2b2" stroke="#b0b2b2" points="1455.53,-400.64 1445.05,-399.046 1452.25,-406.824 1455.53,-400.64"/>
<text text-anchor="middle" x="1493.23" y="-419.951" font-family="Verdana" font-size="7.00" fill="#000000">1</text>
</g>
<!-- kotti.security.list_groups_callback -->
<g id="node7" class="node"><title>kotti.security.list_groups_callback</title>
<polygon fill="#bdd1e5" stroke="#bdd1e5" points="2550.6,-560.059 2415.4,-560.059 2415.4,-524.059 2550.6,-524.059 2550.6,-560.059"/>
<text text-anchor="middle" x="2483" y="-549.22" font-family="Verdana" font-size="7.00" fill="#000000">kotti.security.list_groups_callback</text>
<text text-anchor="middle" x="2483" y="-540.712" font-family="Verdana" font-size="7.00" fill="#000000">calls: 1</text>
<text text-anchor="middle" x="2483" y="-532.205" font-family="Verdana" font-size="7.00" fill="#000000">time: 0.307940s</text>
</g>
<!-- kotti.security.list_groups_callback&#45;&gt;kotti.security.is_user -->
<g id="edge18" class="edge"><title>kotti.security.list_groups_callback&#45;&gt;kotti.security.is_user</title>
<path fill="none" stroke="#b1b2b2" d="M2458.26,-524.024C2441.83,-512.707 2420.06,-497.717 2402.14,-485.373"/>
<polygon fill="#b1b2b2" stroke="#b1b2b2" points="2403.91,-482.342 2393.69,-479.553 2399.94,-488.107 2403.91,-482.342"/>
<text text-anchor="middle" x="2431.23" y="-500.459" font-family="Verdana" font-size="7.00" fill="#000000">1</text>
</g>
<!-- kotti.security.list_groups -->
<g id="node20" class="node"><title>kotti.security.list_groups</title>
<polygon fill="#c1d4e5" stroke="#c1d4e5" points="2534.11,-479.551 2431.89,-479.551 2431.89,-443.551 2534.11,-443.551 2534.11,-479.551"/>
<text text-anchor="middle" x="2483" y="-468.712" font-family="Verdana" font-size="7.00" fill="#000000">kotti.security.list_groups</text>
<text text-anchor="middle" x="2483" y="-460.205" font-family="Verdana" font-size="7.00" fill="#000000">calls: 1</text>
<text text-anchor="middle" x="2483" y="-451.698" font-family="Verdana" font-size="7.00" fill="#000000">time: 0.280317s</text>
</g>
<!-- kotti.security.list_groups_callback&#45;&gt;kotti.security.list_groups -->
<g id="edge19" class="edge"><title>kotti.security.list_groups_callback&#45;&gt;kotti.security.list_groups</title>
<path fill="none" stroke="#96a5b2" d="M2483,-524.024C2483,-514.045 2483,-501.209 2483,-489.85"/>
<polygon fill="#96a5b2" stroke="#96a5b2" points="2486.5,-489.553 2483,-479.553 2479.5,-489.553 2486.5,-489.553"/>
<text text-anchor="middle" x="2485.23" y="-500.459" font-family="Verdana" font-size="7.00" fill="#000000">1</text>
</g>
<!-- kotti.security.get_principals -->
<g id="node24" class="node"><title>kotti.security.get_principals</title>
<polygon fill="#dde4e5" stroke="#dde4e5" points="2683.51,-238.029 2570.49,-238.029 2570.49,-202.029 2683.51,-202.029 2683.51,-238.029"/>
<text text-anchor="middle" x="2627" y="-227.19" font-family="Verdana" font-size="7.00" fill="#000000">kotti.security.get_principals</text>
<text text-anchor="middle" x="2627" y="-218.683" font-family="Verdana" font-size="7.00" fill="#000000">calls: 4</text>
<text text-anchor="middle" x="2627" y="-210.176" font-family="Verdana" font-size="7.00" fill="#000000">time: 0.000696s</text>
</g>
<!-- kotti.security.list_groups_callback&#45;&gt;kotti.security.get_principals -->
<g id="edge17" class="edge"><title>kotti.security.list_groups_callback&#45;&gt;kotti.security.get_principals</title>
<path fill="none" stroke="#b0b2b2" d="M2544.56,-523.978C2605.9,-506.06 2691,-478.352 2691,-462.551 2691,-462.551 2691,-462.551 2691,-299.537 2691,-277.823 2676.11,-258.792 2660.7,-244.907"/>
<polygon fill="#b0b2b2" stroke="#b0b2b2" points="2662.56,-241.902 2652.66,-238.128 2658.05,-247.252 2662.56,-241.902"/>
<text text-anchor="middle" x="2693.23" y="-379.698" font-family="Verdana" font-size="7.00" fill="#000000">1</text>
</g>
<!-- kotti.get_settings -->
<g id="node8" class="node"><title>kotti.get_settings</title>
<polygon fill="#dbe4e5" stroke="#dbe4e5" points="2474.74,-157.522 2397.26,-157.522 2397.26,-121.522 2474.74,-121.522 2474.74,-157.522"/>
<text text-anchor="middle" x="2436" y="-146.683" font-family="Verdana" font-size="7.00" fill="#000000">kotti.get_settings</text>
<text text-anchor="middle" x="2436" y="-138.176" font-family="Verdana" font-size="7.00" fill="#000000">calls: 5</text>
<text text-anchor="middle" x="2436" y="-129.668" font-family="Verdana" font-size="7.00" fill="#000000">time: 0.000491s</text>
</g>
<!-- kotti.security._cachekey_list_groups_raw -->
<g id="node9" class="node"><title>kotti.security._cachekey_list_groups_raw</title>
<polygon fill="#cedee5" stroke="#cedee5" points="1774.7,-318.537 1613.3,-318.537 1613.3,-282.537 1774.7,-282.537 1774.7,-318.537"/>
<text text-anchor="middle" x="1694" y="-307.698" font-family="Verdana" font-size="7.00" fill="#000000">kotti.security._cachekey_list_groups_raw</text>
<text text-anchor="middle" x="1694" y="-299.19" font-family="Verdana" font-size="7.00" fill="#000000">calls: 12</text>
<text text-anchor="middle" x="1694" y="-290.683" font-family="Verdana" font-size="7.00" fill="#000000">time: 0.000468s</text>
</g>
<!-- kotti.sqla.NestedMutationDict.__init__ -->
<g id="node10" class="node"><title>kotti.sqla.NestedMutationDict.__init__</title>
<polygon fill="#cadce5" stroke="#cadce5" points="2055.57,-479.551 1904.43,-479.551 1904.43,-443.551 2055.57,-443.551 2055.57,-479.551"/>
<text text-anchor="middle" x="1980" y="-468.712" font-family="Verdana" font-size="7.00" fill="#000000">kotti.sqla.NestedMutationDict.__init__</text>
<text text-anchor="middle" x="1980" y="-460.205" font-family="Verdana" font-size="7.00" fill="#000000">calls: 14</text>
<text text-anchor="middle" x="1980" y="-451.698" font-family="Verdana" font-size="7.00" fill="#000000">time: 0.000457s</text>
</g>
<!-- kotti.sqla.NestedMutationDict.__init__&#45;&gt;kotti.sqla.NestedMutationDict.__init__ -->
<g id="edge30" class="edge"><title>kotti.sqla.NestedMutationDict.__init__&#45;&gt;kotti.sqla.NestedMutationDict.__init__</title>
<path fill="none" stroke="#a8b0b2" d="M2055.6,-468.282C2066.34,-467.193 2073.54,-464.95 2073.54,-461.551 2073.54,-459.374 2070.58,-457.671 2065.64,-456.442"/>
<polygon fill="#a8b0b2" stroke="#a8b0b2" points="2066.03,-452.961 2055.6,-454.821 2064.92,-459.871 2066.03,-452.961"/>
<text text-anchor="middle" x="2075.76" y="-460.205" font-family="Verdana" font-size="7.00" fill="#000000">7</text>
</g>
<!-- kotti.util.replacement -->
<g id="node11" class="node"><title>kotti.util.replacement</title>
<polygon fill="#9a9be5" stroke="#9a9be5" points="2383.51,-399.044 2292.49,-399.044 2292.49,-363.044 2383.51,-363.044 2383.51,-399.044"/>
<text text-anchor="middle" x="2338" y="-388.205" font-family="Verdana" font-size="7.00" fill="#000000">kotti.util.replacement</text>
<text text-anchor="middle" x="2338" y="-379.698" font-family="Verdana" font-size="7.00" fill="#000000">calls: 19</text>
<text text-anchor="middle" x="2338" y="-371.19" font-family="Verdana" font-size="7.00" fill="#000000">time: 0.319137s</text>
</g>
<!-- kotti.util.replacement&#45;&gt;kotti.security._cachekey_list_groups_raw -->
<g id="edge28" class="edge"><title>kotti.util.replacement&#45;&gt;kotti.security._cachekey_list_groups_raw</title>
<path fill="none" stroke="#a0adb2" d="M2292.16,-376.189C2198.61,-368.057 1978.81,-347.599 1785.04,-318.79"/>
<polygon fill="#a0adb2" stroke="#a0adb2" points="1785.37,-315.3 1774.96,-317.28 1784.33,-322.223 1785.37,-315.3"/>
<text text-anchor="middle" x="1984.45" y="-339.444" font-family="Verdana" font-size="7.00" fill="#000000">12</text>
</g>
<!-- kotti.security._cachekey_list_groups_ext -->
<g id="node25" class="node"><title>kotti.security._cachekey_list_groups_ext</title>
<polygon fill="#dfe5e5" stroke="#dfe5e5" points="1951.51,-318.537 1792.49,-318.537 1792.49,-282.537 1951.51,-282.537 1951.51,-318.537"/>
<text text-anchor="middle" x="1872" y="-307.698" font-family="Verdana" font-size="7.00" fill="#000000">kotti.security._cachekey_list_groups_ext</text>
<text text-anchor="middle" x="1872" y="-299.19" font-family="Verdana" font-size="7.00" fill="#000000">calls: 3</text>
<text text-anchor="middle" x="1872" y="-290.683" font-family="Verdana" font-size="7.00" fill="#000000">time: 0.000088s</text>
</g>
<!-- kotti.util.replacement&#45;&gt;kotti.security._cachekey_list_groups_ext -->
<g id="edge27" class="edge"><title>kotti.util.replacement&#45;&gt;kotti.security._cachekey_list_groups_ext</title>
<path fill="none" stroke="#aeb2b2" d="M2292.38,-373.008C2223.29,-362.263 2087.73,-340.834 1961.77,-318.647"/>
<polygon fill="#aeb2b2" stroke="#aeb2b2" points="1962.01,-315.136 1951.56,-316.843 1960.8,-322.03 1962.01,-315.136"/>
<text text-anchor="middle" x="2118.23" y="-339.444" font-family="Verdana" font-size="7.00" fill="#000000">3</text>
</g>
<!-- kotti.security.list_groups_raw -->
<g id="node33" class="node"><title>kotti.security.list_groups_raw</title>
<polygon fill="#cedee5" stroke="#cedee5" points="2251.82,-318.537 2132.18,-318.537 2132.18,-282.537 2251.82,-282.537 2251.82,-318.537"/>
<text text-anchor="middle" x="2192" y="-307.698" font-family="Verdana" font-size="7.00" fill="#000000">kotti.security.list_groups_raw</text>
<text text-anchor="middle" x="2192" y="-299.19" font-family="Verdana" font-size="7.00" fill="#000000">calls: 12</text>
<text text-anchor="middle" x="2192" y="-290.683" font-family="Verdana" font-size="7.00" fill="#000000">time: 0.002851s</text>
</g>
<!-- kotti.util.replacement&#45;&gt;kotti.security.list_groups_raw -->
<g id="edge24" class="edge"><title>kotti.util.replacement&#45;&gt;kotti.security.list_groups_raw</title>
<path fill="none" stroke="#a0acb2" d="M2306.32,-363.009C2284.7,-351.384 2255.87,-335.882 2232.57,-323.354"/>
<polygon fill="#a0acb2" stroke="#a0acb2" points="2234.08,-320.192 2223.62,-318.538 2230.77,-326.357 2234.08,-320.192"/>
<text text-anchor="middle" x="2273.45" y="-339.444" font-family="Verdana" font-size="7.00" fill="#000000">12</text>
</g>
<!-- kotti.security.Principals.__getitem__ -->
<g id="node34" class="node"><title>kotti.security.Principals.__getitem__</title>
<polygon fill="#dce4e5" stroke="#dce4e5" points="2114.43,-318.537 1969.57,-318.537 1969.57,-282.537 2114.43,-282.537 2114.43,-318.537"/>
<text text-anchor="middle" x="2042" y="-307.698" font-family="Verdana" font-size="7.00" fill="#000000">kotti.security.Principals.__getitem__</text>
<text text-anchor="middle" x="2042" y="-299.19" font-family="Verdana" font-size="7.00" fill="#000000">calls: 3</text>
<text text-anchor="middle" x="2042" y="-290.683" font-family="Verdana" font-size="7.00" fill="#000000">time: 0.026548s</text>
</g>
<!-- kotti.util.replacement&#45;&gt;kotti.security.Principals.__getitem__ -->
<g id="edge25" class="edge"><title>kotti.util.replacement&#45;&gt;kotti.security.Principals.__getitem__</title>
<path fill="none" stroke="#abb1b2" d="M2292.4,-367.949C2245.43,-355.493 2171.48,-335.879 2116.1,-321.191"/>
<polygon fill="#abb1b2" stroke="#abb1b2" points="2116.9,-317.781 2106.34,-318.601 2115.11,-324.547 2116.9,-317.781"/>
<text text-anchor="middle" x="2200.23" y="-339.444" font-family="Verdana" font-size="7.00" fill="#000000">3</text>
</g>
<!-- kotti.security.Principals.&lt;lambda&gt; -->
<g id="node35" class="node"><title>kotti.security.Principals.&lt;lambda&gt;</title>
<polygon fill="#dde4e5" stroke="#dde4e5" points="2406.5,-318.537 2269.5,-318.537 2269.5,-282.537 2406.5,-282.537 2406.5,-318.537"/>
<text text-anchor="middle" x="2338" y="-307.698" font-family="Verdana" font-size="7.00" fill="#000000">kotti.security.Principals.&lt;lambda&gt;</text>
<text text-anchor="middle" x="2338" y="-299.19" font-family="Verdana" font-size="7.00" fill="#000000">calls: 4</text>
<text text-anchor="middle" x="2338" y="-290.683" font-family="Verdana" font-size="7.00" fill="#000000">time: 0.000025s</text>
</g>
<!-- kotti.util.replacement&#45;&gt;kotti.security.Principals.&lt;lambda&gt; -->
<g id="edge26" class="edge"><title>kotti.util.replacement&#45;&gt;kotti.security.Principals.&lt;lambda&gt;</title>
<path fill="none" stroke="#acb1b2" d="M2338,-363.009C2338,-353.03 2338,-340.194 2338,-328.835"/>
<polygon fill="#acb1b2" stroke="#acb1b2" points="2341.5,-328.538 2338,-318.538 2334.5,-328.538 2341.5,-328.538"/>
<text text-anchor="middle" x="2340.23" y="-339.444" font-family="Verdana" font-size="7.00" fill="#000000">4</text>
</g>
<!-- kotti.security.list_groups_ext -->
<g id="node36" class="node"><title>kotti.security.list_groups_ext</title>
<polygon fill="#bcd0e5" stroke="#bcd0e5" points="2672.13,-318.537 2553.87,-318.537 2553.87,-282.537 2672.13,-282.537 2672.13,-318.537"/>
<text text-anchor="middle" x="2613" y="-307.698" font-family="Verdana" font-size="7.00" fill="#000000">kotti.security.list_groups_ext</text>
<text text-anchor="middle" x="2613" y="-299.19" font-family="Verdana" font-size="7.00" fill="#000000">calls: 3</text>
<text text-anchor="middle" x="2613" y="-290.683" font-family="Verdana" font-size="7.00" fill="#000000">time: 0.285032s</text>
</g>
<!-- kotti.util.replacement&#45;&gt;kotti.security.list_groups_ext -->
<g id="edge23" class="edge"><title>kotti.util.replacement&#45;&gt;kotti.security.list_groups_ext</title>
<path fill="none" stroke="#92a1b2" d="M2383.72,-366.992C2427.39,-354.525 2493.79,-335.568 2543.92,-321.258"/>
<polygon fill="#92a1b2" stroke="#92a1b2" points="2545.06,-324.572 2553.71,-318.461 2543.14,-317.841 2545.06,-324.572"/>
<text text-anchor="middle" x="2493.23" y="-339.444" font-family="Verdana" font-size="7.00" fill="#000000">3</text>
</g>
<!-- kotti.util.request_container -->
<g id="node40" class="node"><title>kotti.util.request_container</title>
<polygon fill="#c1d4e5" stroke="#c1d4e5" points="2535.65,-318.537 2424.35,-318.537 2424.35,-282.537 2535.65,-282.537 2535.65,-318.537"/>
<text text-anchor="middle" x="2480" y="-307.698" font-family="Verdana" font-size="7.00" fill="#000000">kotti.util.request_container</text>
<text text-anchor="middle" x="2480" y="-299.19" font-family="Verdana" font-size="7.00" fill="#000000">calls: 19</text>
<text text-anchor="middle" x="2480" y="-290.683" font-family="Verdana" font-size="7.00" fill="#000000">time: 0.001191s</text>
</g>
<!-- kotti.util.replacement&#45;&gt;kotti.util.request_container -->
<g id="edge29" class="edge"><title>kotti.util.replacement&#45;&gt;kotti.util.request_container</title>
<path fill="none" stroke="#96a4b2" d="M2368.81,-363.009C2389.75,-351.435 2417.63,-336.019 2440.24,-323.521"/>
<polygon fill="#96a4b2" stroke="#96a4b2" points="2442.19,-326.44 2449.25,-318.538 2438.8,-320.314 2442.19,-326.44"/>
<text text-anchor="middle" x="2421.45" y="-339.444" font-family="Verdana" font-size="7.00" fill="#000000">19</text>
</g>
<!-- kotti.filedepot.DBFileStorage.get -->
<g id="node12" class="node"><title>kotti.filedepot.DBFileStorage.get</title>
<polygon fill="#e0e5e5" stroke="#e0e5e5" points="2397.18,-560.059 2266.82,-560.059 2266.82,-524.059 2397.18,-524.059 2397.18,-560.059"/>
<text text-anchor="middle" x="2332" y="-549.22" font-family="Verdana" font-size="7.00" fill="#000000">kotti.filedepot.DBFileStorage.get</text>
<text text-anchor="middle" x="2332" y="-540.712" font-family="Verdana" font-size="7.00" fill="#000000">calls: 1</text>
<text text-anchor="middle" x="2332" y="-532.205" font-family="Verdana" font-size="7.00" fill="#000000">time: 0.022635s</text>
</g>
<!-- kotti.resources.DefaultRootCache.root_id -->
<g id="node13" class="node"><title>kotti.resources.DefaultRootCache.root_id</title>
<polygon fill="#bdd1e5" stroke="#bdd1e5" points="2248.44,-560.059 2087.56,-560.059 2087.56,-524.059 2248.44,-524.059 2248.44,-560.059"/>
<text text-anchor="middle" x="2168" y="-549.22" font-family="Verdana" font-size="7.00" fill="#000000">kotti.resources.DefaultRootCache.root_id</text>
<text text-anchor="middle" x="2168" y="-540.712" font-family="Verdana" font-size="7.00" fill="#000000">calls: 1</text>
<text text-anchor="middle" x="2168" y="-532.205" font-family="Verdana" font-size="7.00" fill="#000000">time: 0.308565s</text>
</g>
<!-- kotti.sqla.coerce -->
<g id="node14" class="node"><title>kotti.sqla.coerce</title>
<polygon fill="#9998e5" stroke="#9998e5" points="2069.14,-560.059 1994.86,-560.059 1994.86,-524.059 2069.14,-524.059 2069.14,-560.059"/>
<text text-anchor="middle" x="2032" y="-549.22" font-family="Verdana" font-size="7.00" fill="#000000">kotti.sqla.coerce</text>
<text text-anchor="middle" x="2032" y="-540.712" font-family="Verdana" font-size="7.00" fill="#000000">calls: 40</text>
<text text-anchor="middle" x="2032" y="-532.205" font-family="Verdana" font-size="7.00" fill="#000000">time: 0.001440s</text>
</g>
<!-- kotti.sqla.coerce&#45;&gt;kotti.sqla.NestedMutationDict.__init__ -->
<g id="edge1" class="edge"><title>kotti.sqla.coerce&#45;&gt;kotti.sqla.NestedMutationDict.__init__</title>
<path fill="none" stroke="#a8b0b2" d="M2020.72,-524.024C2013.77,-513.53 2004.72,-499.878 1996.93,-488.106"/>
<polygon fill="#a8b0b2" stroke="#a8b0b2" points="1999.7,-485.957 1991.26,-479.553 1993.87,-489.823 1999.7,-485.957"/>
<text text-anchor="middle" x="2009.23" y="-500.459" font-family="Verdana" font-size="7.00" fill="#000000">7</text>
</g>
<!-- kotti.sqla.MutationList.__init__ -->
<g id="node15" class="node"><title>kotti.sqla.MutationList.__init__</title>
<polygon fill="#d8e3e5" stroke="#d8e3e5" points="2220.74,-479.551 2095.26,-479.551 2095.26,-443.551 2220.74,-443.551 2220.74,-479.551"/>
<text text-anchor="middle" x="2158" y="-468.712" font-family="Verdana" font-size="7.00" fill="#000000">kotti.sqla.MutationList.__init__</text>
<text text-anchor="middle" x="2158" y="-460.205" font-family="Verdana" font-size="7.00" fill="#000000">calls: 7</text>
<text text-anchor="middle" x="2158" y="-451.698" font-family="Verdana" font-size="7.00" fill="#000000">time: 0.000101s</text>
</g>
<!-- kotti.sqla.coerce&#45;&gt;kotti.sqla.MutationList.__init__ -->
<g id="edge2" class="edge"><title>kotti.sqla.coerce&#45;&gt;kotti.sqla.MutationList.__init__</title>
<path fill="none" stroke="#a8b0b2" d="M2059.34,-524.024C2077.75,-512.553 2102.22,-497.308 2122.18,-484.869"/>
<polygon fill="#a8b0b2" stroke="#a8b0b2" points="2124.08,-487.812 2130.71,-479.553 2120.38,-481.871 2124.08,-487.812"/>
<text text-anchor="middle" x="2104.23" y="-500.459" font-family="Verdana" font-size="7.00" fill="#000000">7</text>
</g>
<!-- kotti.views.file.inline_view -->
<g id="node16" class="node"><title>kotti.views.file.inline_view</title>
<polygon fill="#dfe5e5" stroke="#dfe5e5" points="1976.19,-560.059 1867.81,-560.059 1867.81,-524.059 1976.19,-524.059 1976.19,-560.059"/>
<text text-anchor="middle" x="1922" y="-549.22" font-family="Verdana" font-size="7.00" fill="#000000">kotti.views.file.inline_view</text>
<text text-anchor="middle" x="1922" y="-540.712" font-family="Verdana" font-size="7.00" fill="#000000">calls: 1</text>
<text text-anchor="middle" x="1922" y="-532.205" font-family="Verdana" font-size="7.00" fill="#000000">time: 0.030461s</text>
</g>
<!-- kotti.views.file.inline_view&#45;&gt;kotti.filedepot.Request.uploaded_file_response -->
<g id="edge4" class="edge"><title>kotti.views.file.inline_view&#45;&gt;kotti.filedepot.Request.uploaded_file_response</title>
<path fill="none" stroke="#aeb2b2" d="M1867.76,-526.2C1864.8,-525.459 1861.87,-524.74 1859,-524.059 1793.17,-508.398 1718.61,-493.011 1660.54,-481.544"/>
<polygon fill="#aeb2b2" stroke="#aeb2b2" points="1661.12,-478.091 1650.63,-479.594 1659.77,-484.959 1661.12,-478.091"/>
<text text-anchor="middle" x="1779.23" y="-500.459" font-family="Verdana" font-size="7.00" fill="#000000">1</text>
</g>
<!-- kotti.resources.Document.__eq__ -->
<g id="node17" class="node"><title>kotti.resources.Document.__eq__</title>
<polygon fill="#b7c9e5" stroke="#b7c9e5" points="1849.55,-560.059 1714.45,-560.059 1714.45,-524.059 1849.55,-524.059 1849.55,-560.059"/>
<text text-anchor="middle" x="1782" y="-549.22" font-family="Verdana" font-size="7.00" fill="#000000">kotti.resources.Document.__eq__</text>
<text text-anchor="middle" x="1782" y="-540.712" font-family="Verdana" font-size="7.00" fill="#000000">calls: 24</text>
<text text-anchor="middle" x="1782" y="-532.205" font-family="Verdana" font-size="7.00" fill="#000000">time: 0.001784s</text>
</g>
<!-- kotti.security.Document._get_acl -->
<g id="node18" class="node"><title>kotti.security.Document._get_acl</title>
<polygon fill="#e3e5e5" stroke="#e3e5e5" points="1696.27,-560.059 1563.73,-560.059 1563.73,-524.059 1696.27,-524.059 1696.27,-560.059"/>
<text text-anchor="middle" x="1630" y="-549.22" font-family="Verdana" font-size="7.00" fill="#000000">kotti.security.Document._get_acl</text>
<text text-anchor="middle" x="1630" y="-540.712" font-family="Verdana" font-size="7.00" fill="#000000">calls: 1</text>
<text text-anchor="middle" x="1630" y="-532.205" font-family="Verdana" font-size="7.00" fill="#000000">time: 0.000103s</text>
</g>
<!-- kotti.filedepot.StoredFileResponse._get_type_and_encoding -->
<g id="node19" class="node"><title>kotti.filedepot.StoredFileResponse._get_type_and_encoding</title>
<polygon fill="#e3e5e5" stroke="#e3e5e5" points="1272.54,-318.537 1045.46,-318.537 1045.46,-282.537 1272.54,-282.537 1272.54,-318.537"/>
<text text-anchor="middle" x="1159" y="-307.698" font-family="Verdana" font-size="7.00" fill="#000000">kotti.filedepot.StoredFileResponse._get_type_and_encoding</text>
<text text-anchor="middle" x="1159" y="-299.19" font-family="Verdana" font-size="7.00" fill="#000000">calls: 1</text>
<text text-anchor="middle" x="1159" y="-290.683" font-family="Verdana" font-size="7.00" fill="#000000">time: 0.000135s</text>
</g>
<!-- kotti.security.list_groups&#45;&gt;kotti.util.replacement -->
<g id="edge9" class="edge"><title>kotti.security.list_groups&#45;&gt;kotti.util.replacement</title>
<path fill="none" stroke="#92a1b2" d="M2451.54,-443.516C2430.07,-431.891 2401.43,-416.389 2378.3,-403.861"/>
<polygon fill="#92a1b2" stroke="#92a1b2" points="2379.86,-400.729 2369.4,-399.046 2376.53,-406.885 2379.86,-400.729"/>
<text text-anchor="middle" x="2416.23" y="-419.951" font-family="Verdana" font-size="7.00" fill="#000000">1</text>
</g>
<!-- kotti.filedepot.TweenFactory.__call__ -->
<g id="node21" class="node"><title>kotti.filedepot.TweenFactory.__call__</title>
<polygon fill="#e54ae1" stroke="#e54ae1" points="1546.41,-560.059 1399.59,-560.059 1399.59,-524.059 1546.41,-524.059 1546.41,-560.059"/>
<text text-anchor="middle" x="1473" y="-549.22" font-family="Verdana" font-size="7.00" fill="#000000">kotti.filedepot.TweenFactory.__call__</text>
<text text-anchor="middle" x="1473" y="-540.712" font-family="Verdana" font-size="7.00" fill="#000000">calls: 1</text>
<text text-anchor="middle" x="1473" y="-532.205" font-family="Verdana" font-size="7.00" fill="#000000">time: 1.253096s</text>
</g>
<!-- kotti.resources.File.__eq__ -->
<g id="node22" class="node"><title>kotti.resources.File.__eq__</title>
<polygon fill="#e1e5e5" stroke="#e1e5e5" points="1381.7,-560.059 1270.3,-560.059 1270.3,-524.059 1381.7,-524.059 1381.7,-560.059"/>
<text text-anchor="middle" x="1326" y="-549.22" font-family="Verdana" font-size="7.00" fill="#000000">kotti.resources.File.__eq__</text>
<text text-anchor="middle" x="1326" y="-540.712" font-family="Verdana" font-size="7.00" fill="#000000">calls: 2</text>
<text text-anchor="middle" x="1326" y="-532.205" font-family="Verdana" font-size="7.00" fill="#000000">time: 0.000176s</text>
</g>
<!-- kotti.filedepot.StoredFileResponse.__init__&#45;&gt;kotti.filedepot.StoredFileResponse._get_type_and_encoding -->
<g id="edge14" class="edge"><title>kotti.filedepot.StoredFileResponse.__init__&#45;&gt;kotti.filedepot.StoredFileResponse._get_type_and_encoding</title>
<path fill="none" stroke="#b0b2b2" d="M1357.89,-363.009C1318.44,-350.818 1265.21,-334.364 1223.74,-321.547"/>
<polygon fill="#b0b2b2" stroke="#b0b2b2" points="1224.59,-318.147 1214.01,-318.538 1222.53,-324.835 1224.59,-318.147"/>
<text text-anchor="middle" x="1295.23" y="-339.444" font-family="Verdana" font-size="7.00" fill="#000000">1</text>
</g>
<!-- kotti.filedepot.DBStoredFile.public_url -->
<g id="node32" class="node"><title>kotti.filedepot.DBStoredFile.public_url</title>
<polygon fill="#e3e5e5" stroke="#e3e5e5" points="1440.74,-318.537 1291.26,-318.537 1291.26,-282.537 1440.74,-282.537 1440.74,-318.537"/>
<text text-anchor="middle" x="1366" y="-307.698" font-family="Verdana" font-size="7.00" fill="#000000">kotti.filedepot.DBStoredFile.public_url</text>
<text text-anchor="middle" x="1366" y="-299.19" font-family="Verdana" font-size="7.00" fill="#000000">calls: 1</text>
<text text-anchor="middle" x="1366" y="-290.683" font-family="Verdana" font-size="7.00" fill="#000000">time: 0.000007s</text>
</g>
<!-- kotti.filedepot.StoredFileResponse.__init__&#45;&gt;kotti.filedepot.DBStoredFile.public_url -->
<g id="edge15" class="edge"><title>kotti.filedepot.StoredFileResponse.__init__&#45;&gt;kotti.filedepot.DBStoredFile.public_url</title>
<path fill="none" stroke="#b1b2b2" d="M1402.8,-363.009C1396.58,-352.618 1388.51,-339.131 1381.51,-327.438"/>
<polygon fill="#b1b2b2" stroke="#b1b2b2" points="1384.32,-325.32 1376.18,-318.538 1378.31,-328.916 1384.32,-325.32"/>
<text text-anchor="middle" x="1392.23" y="-339.444" font-family="Verdana" font-size="7.00" fill="#000000">1</text>
</g>
<!-- kotti.filedepot.type.generate_etag -->
<g id="node42" class="node"><title>kotti.filedepot.type.generate_etag</title>
<polygon fill="#e3e5e5" stroke="#e3e5e5" points="1595.24,-318.537 1458.76,-318.537 1458.76,-282.537 1595.24,-282.537 1595.24,-318.537"/>
<text text-anchor="middle" x="1527" y="-307.698" font-family="Verdana" font-size="7.00" fill="#000000">kotti.filedepot.type.generate_etag</text>
<text text-anchor="middle" x="1527" y="-299.19" font-family="Verdana" font-size="7.00" fill="#000000">calls: 1</text>
<text text-anchor="middle" x="1527" y="-290.683" font-family="Verdana" font-size="7.00" fill="#000000">time: 0.000071s</text>
</g>
<!-- kotti.filedepot.StoredFileResponse.__init__&#45;&gt;kotti.filedepot.type.generate_etag -->
<g id="edge16" class="edge"><title>kotti.filedepot.StoredFileResponse.__init__&#45;&gt;kotti.filedepot.type.generate_etag</title>
<path fill="none" stroke="#b1b2b2" d="M1437.74,-363.009C1454.17,-351.693 1475.94,-336.702 1493.86,-324.358"/>
<polygon fill="#b1b2b2" stroke="#b1b2b2" points="1496.06,-327.093 1502.31,-318.538 1492.09,-321.328 1496.06,-327.093"/>
<text text-anchor="middle" x="1478.23" y="-339.444" font-family="Verdana" font-size="7.00" fill="#000000">1</text>
</g>
<!-- kotti.security.get_principals&#45;&gt;kotti.get_settings -->
<g id="edge6" class="edge"><title>kotti.security.get_principals&#45;&gt;kotti.get_settings</title>
<path fill="none" stroke="#acb1b2" d="M2585.56,-201.994C2555.73,-189.734 2515.41,-173.161 2484.15,-160.312"/>
<polygon fill="#acb1b2" stroke="#acb1b2" points="2485.34,-157.018 2474.76,-156.453 2482.68,-163.492 2485.34,-157.018"/>
<text text-anchor="middle" x="2539.23" y="-178.429" font-family="Verdana" font-size="7.00" fill="#000000">4</text>
</g>
<!-- kotti.security.principals_factory -->
<g id="node28" class="node"><title>kotti.security.principals_factory</title>
<polygon fill="#dde4e5" stroke="#dde4e5" points="2690.17,-157.522 2563.83,-157.522 2563.83,-121.522 2690.17,-121.522 2690.17,-157.522"/>
<text text-anchor="middle" x="2627" y="-146.683" font-family="Verdana" font-size="7.00" fill="#000000">kotti.security.principals_factory</text>
<text text-anchor="middle" x="2627" y="-138.176" font-family="Verdana" font-size="7.00" fill="#000000">calls: 4</text>
<text text-anchor="middle" x="2627" y="-129.668" font-family="Verdana" font-size="7.00" fill="#000000">time: 0.000035s</text>
</g>
<!-- kotti.security.get_principals&#45;&gt;kotti.security.principals_factory -->
<g id="edge7" class="edge"><title>kotti.security.get_principals&#45;&gt;kotti.security.principals_factory</title>
<path fill="none" stroke="#acb1b2" d="M2627,-201.994C2627,-192.015 2627,-179.18 2627,-167.82"/>
<polygon fill="#acb1b2" stroke="#acb1b2" points="2630.5,-167.524 2627,-157.524 2623.5,-167.524 2630.5,-167.524"/>
<text text-anchor="middle" x="2629.23" y="-178.429" font-family="Verdana" font-size="7.00" fill="#000000">4</text>
</g>
<!-- kotti.sqla.ACLType.process_result_value -->
<g id="node26" class="node"><title>kotti.sqla.ACLType.process_result_value</title>
<polygon fill="#cadbe5" stroke="#cadbe5" points="1230.58,-560.059 1073.42,-560.059 1073.42,-524.059 1230.58,-524.059 1230.58,-560.059"/>
<text text-anchor="middle" x="1152" y="-549.22" font-family="Verdana" font-size="7.00" fill="#000000">kotti.sqla.ACLType.process_result_value</text>
<text text-anchor="middle" x="1152" y="-540.712" font-family="Verdana" font-size="7.00" fill="#000000">calls: 14</text>
<text text-anchor="middle" x="1152" y="-532.205" font-family="Verdana" font-size="7.00" fill="#000000">time: 0.003174s</text>
</g>
<!-- kotti.sqla.ACLType.process_result_value&#45;&gt;kotti.sqla.ACLType.process_result_value -->
<g id="edge10" class="edge"><title>kotti.sqla.ACLType.process_result_value&#45;&gt;kotti.sqla.ACLType.process_result_value</title>
<path fill="none" stroke="#a7b0b2" d="M1230.79,-548.712C1241.44,-547.597 1248.54,-545.379 1248.54,-542.059 1248.54,-539.932 1245.63,-538.257 1240.73,-537.035"/>
<polygon fill="#a7b0b2" stroke="#a7b0b2" points="1241.22,-533.568 1230.79,-535.405 1240.09,-540.476 1241.22,-533.568"/>
<text text-anchor="middle" x="1250.76" y="-540.712" font-family="Verdana" font-size="7.00" fill="#000000">7</text>
</g>
<!-- kotti.sqla.JsonType.process_result_value -->
<g id="node27" class="node"><title>kotti.sqla.JsonType.process_result_value</title>
<polygon fill="#d6e2e5" stroke="#d6e2e5" points="1055.6,-560.059 896.404,-560.059 896.404,-524.059 1055.6,-524.059 1055.6,-560.059"/>
<text text-anchor="middle" x="976" y="-549.22" font-family="Verdana" font-size="7.00" fill="#000000">kotti.sqla.JsonType.process_result_value</text>
<text text-anchor="middle" x="976" y="-540.712" font-family="Verdana" font-size="7.00" fill="#000000">calls: 8</text>
<text text-anchor="middle" x="976" y="-532.205" font-family="Verdana" font-size="7.00" fill="#000000">time: 0.000935s</text>
</g>
<!-- kotti.resources.DefaultRootCache.__call__ -->
<g id="node29" class="node"><title>kotti.resources.DefaultRootCache.__call__</title>
<polygon fill="#aab8e5" stroke="#aab8e5" points="2278.95,-157.522 2113.05,-157.522 2113.05,-121.522 2278.95,-121.522 2278.95,-157.522"/>
<text text-anchor="middle" x="2196" y="-146.683" font-family="Verdana" font-size="7.00" fill="#000000">kotti.resources.DefaultRootCache.__call__</text>
<text text-anchor="middle" x="2196" y="-138.176" font-family="Verdana" font-size="7.00" fill="#000000">calls: 1</text>
<text text-anchor="middle" x="2196" y="-129.668" font-family="Verdana" font-size="7.00" fill="#000000">time: 0.466665s</text>
</g>
<!-- kotti.resources.DefaultRootCache.__call__&#45;&gt;kotti.resources.DefaultRootCache.get_root -->
<g id="edge22" class="edge"><title>kotti.resources.DefaultRootCache.__call__&#45;&gt;kotti.resources.DefaultRootCache.get_root</title>
<path fill="none" stroke="#848fb2" d="M2196,-121.487C2196,-111.508 2196,-98.6723 2196,-87.3131"/>
<polygon fill="#848fb2" stroke="#848fb2" points="2199.5,-87.0163 2196,-77.0163 2192.5,-87.0164 2199.5,-87.0163"/>
<text text-anchor="middle" x="2198.23" y="-97.922" font-family="Verdana" font-size="7.00" fill="#000000">1</text>
</g>
<!-- kotti.resources.Document.__parent__ -->
<g id="node30" class="node"><title>kotti.resources.Document.__parent__</title>
<polygon fill="#c4d7e5" stroke="#c4d7e5" points="877.93,-560.059 728.07,-560.059 728.07,-524.059 877.93,-524.059 877.93,-560.059"/>
<text text-anchor="middle" x="803" y="-549.22" font-family="Verdana" font-size="7.00" fill="#000000">kotti.resources.Document.__parent__</text>
<text text-anchor="middle" x="803" y="-540.712" font-family="Verdana" font-size="7.00" fill="#000000">calls: 9</text>
<text text-anchor="middle" x="803" y="-532.205" font-family="Verdana" font-size="7.00" fill="#000000">time: 0.128562s</text>
</g>
<!-- kotti.filedepot.UploadedFileField.patched_processed_result_value -->
<g id="node31" class="node"><title>kotti.filedepot.UploadedFileField.patched_processed_result_value</title>
<polygon fill="#e3e5e5" stroke="#e3e5e5" points="710.118,-560.059 463.882,-560.059 463.882,-524.059 710.118,-524.059 710.118,-560.059"/>
<text text-anchor="middle" x="587" y="-549.22" font-family="Verdana" font-size="7.00" fill="#000000">kotti.filedepot.UploadedFileField.patched_processed_result_value</text>
<text text-anchor="middle" x="587" y="-540.712" font-family="Verdana" font-size="7.00" fill="#000000">calls: 1</text>
<text text-anchor="middle" x="587" y="-532.205" font-family="Verdana" font-size="7.00" fill="#000000">time: 0.000571s</text>
</g>
<!-- kotti.security.list_groups_raw&#45;&gt;kotti.security.&lt;genexpr&gt; -->
<g id="edge3" class="edge"><title>kotti.security.list_groups_raw&#45;&gt;kotti.security.&lt;genexpr&gt;</title>
<path fill="none" stroke="#9facb2" d="M2218.91,-282.502C2236.94,-271.082 2260.89,-255.922 2280.48,-243.515"/>
<polygon fill="#9facb2" stroke="#9facb2" points="2282.57,-246.337 2289.15,-238.031 2278.83,-240.423 2282.57,-246.337"/>
<text text-anchor="middle" x="2261.45" y="-258.937" font-family="Verdana" font-size="7.00" fill="#000000">13</text>
</g>
<!-- kotti.security.list_groups_ext&#45;&gt;kotti.sqla.MutationList.replacer -->
<g id="edge12" class="edge"><title>kotti.security.list_groups_ext&#45;&gt;kotti.sqla.MutationList.replacer</title>
<path fill="none" stroke="#afb2b2" d="M2586.31,-282.502C2568.42,-271.082 2544.67,-255.922 2525.23,-243.515"/>
<polygon fill="#afb2b2" stroke="#afb2b2" points="2526.95,-240.461 2516.64,-238.031 2523.18,-246.361 2526.95,-240.461"/>
<text text-anchor="middle" x="2557.23" y="-258.937" font-family="Verdana" font-size="7.00" fill="#000000">2</text>
</g>
<!-- kotti.security.list_groups_ext&#45;&gt;kotti.util.replacement -->
<g id="edge13" class="edge"><title>kotti.security.list_groups_ext&#45;&gt;kotti.util.replacement</title>
<path fill="none" stroke="#7f86b2" d="M2571.5,-318.56C2549.35,-327.244 2521.46,-337.529 2496,-345.044 2462.47,-354.941 2424.21,-363.485 2393.73,-369.655"/>
<polygon fill="#7f86b2" stroke="#7f86b2" points="2392.84,-366.264 2383.71,-371.654 2394.21,-373.129 2392.84,-366.264"/>
<text text-anchor="middle" x="2526.45" y="-339.444" font-family="Verdana" font-size="7.00" fill="#000000">14</text>
</g>
<!-- kotti.security.list_groups_ext&#45;&gt;kotti.security.get_principals -->
<g id="edge11" class="edge"><title>kotti.security.list_groups_ext&#45;&gt;kotti.security.get_principals</title>
<path fill="none" stroke="#adb2b2" d="M2616.04,-282.502C2617.84,-272.42 2620.15,-259.422 2622.19,-247.977"/>
<polygon fill="#adb2b2" stroke="#adb2b2" points="2625.66,-248.49 2623.97,-238.031 2618.77,-247.261 2625.66,-248.49"/>
<text text-anchor="middle" x="2622.23" y="-258.937" font-family="Verdana" font-size="7.00" fill="#000000">3</text>
</g>
<!-- kotti.security.File._get_acl -->
<g id="node37" class="node"><title>kotti.security.File._get_acl</title>
<polygon fill="#e3e5e5" stroke="#e3e5e5" points="446.416,-560.059 337.584,-560.059 337.584,-524.059 446.416,-524.059 446.416,-560.059"/>
<text text-anchor="middle" x="392" y="-549.22" font-family="Verdana" font-size="7.00" fill="#000000">kotti.security.File._get_acl</text>
<text text-anchor="middle" x="392" y="-540.712" font-family="Verdana" font-size="7.00" fill="#000000">calls: 1</text>
<text text-anchor="middle" x="392" y="-532.205" font-family="Verdana" font-size="7.00" fill="#000000">time: 0.000097s</text>
</g>
<!-- kotti.resources.get_root -->
<g id="node38" class="node"><title>kotti.resources.get_root</title>
<polygon fill="#aab8e5" stroke="#aab8e5" points="2246.27,-238.029 2145.73,-238.029 2145.73,-202.029 2246.27,-202.029 2246.27,-238.029"/>
<text text-anchor="middle" x="2196" y="-227.19" font-family="Verdana" font-size="7.00" fill="#000000">kotti.resources.get_root</text>
<text text-anchor="middle" x="2196" y="-218.683" font-family="Verdana" font-size="7.00" fill="#000000">calls: 1</text>
<text text-anchor="middle" x="2196" y="-210.176" font-family="Verdana" font-size="7.00" fill="#000000">time: 0.466963s</text>
</g>
<!-- kotti.resources.get_root&#45;&gt;kotti.get_settings -->
<g id="edge21" class="edge"><title>kotti.resources.get_root&#45;&gt;kotti.get_settings</title>
<path fill="none" stroke="#b0b2b2" d="M2246.31,-202.572C2287.92,-188.96 2346.64,-169.752 2387.69,-156.324"/>
<polygon fill="#b0b2b2" stroke="#b0b2b2" points="2388.79,-159.648 2397.21,-153.212 2386.61,-152.995 2388.79,-159.648"/>
<text text-anchor="middle" x="2332.23" y="-178.429" font-family="Verdana" font-size="7.00" fill="#000000">1</text>
</g>
<!-- kotti.resources.get_root&#45;&gt;kotti.resources.DefaultRootCache.__call__ -->
<g id="edge20" class="edge"><title>kotti.resources.get_root&#45;&gt;kotti.resources.DefaultRootCache.__call__</title>
<path fill="none" stroke="#848fb2" d="M2196,-201.994C2196,-192.015 2196,-179.18 2196,-167.82"/>
<polygon fill="#848fb2" stroke="#848fb2" points="2199.5,-167.524 2196,-157.524 2192.5,-167.524 2199.5,-167.524"/>
<text text-anchor="middle" x="2198.23" y="-178.429" font-family="Verdana" font-size="7.00" fill="#000000">1</text>
</g>
<!-- kotti.filedepot.adjust_for_engine -->
<g id="node39" class="node"><title>kotti.filedepot.adjust_for_engine</title>
<polygon fill="#e3e5e5" stroke="#e3e5e5" points="319.614,-560.059 188.386,-560.059 188.386,-524.059 319.614,-524.059 319.614,-560.059"/>
<text text-anchor="middle" x="254" y="-549.22" font-family="Verdana" font-size="7.00" fill="#000000">kotti.filedepot.adjust_for_engine</text>
<text text-anchor="middle" x="254" y="-540.712" font-family="Verdana" font-size="7.00" fill="#000000">calls: 1</text>
<text text-anchor="middle" x="254" y="-532.205" font-family="Verdana" font-size="7.00" fill="#000000">time: 0.000034s</text>
</g>
<!-- kotti.resources.Document.__getitem__ -->
<g id="node41" class="node"><title>kotti.resources.Document.__getitem__</title>
<polygon fill="#acbbe5" stroke="#acbbe5" points="169.966,-560.059 16.0337,-560.059 16.0337,-524.059 169.966,-524.059 169.966,-560.059"/>
<text text-anchor="middle" x="93" y="-549.22" font-family="Verdana" font-size="7.00" fill="#000000">kotti.resources.Document.__getitem__</text>
<text text-anchor="middle" x="93" y="-540.712" font-family="Verdana" font-size="7.00" fill="#000000">calls: 3</text>
<text text-anchor="middle" x="93" y="-532.205" font-family="Verdana" font-size="7.00" fill="#000000">time: 0.416480s</text>
</g>
<!-- __main__ -->
<g id="node43" class="node"><title>__main__</title>
<polygon fill="#e3e5e5" stroke="#e3e5e5" points="1510.14,-658.719 1435.86,-658.719 1435.86,-622.719 1510.14,-622.719 1510.14,-658.719"/>
<text text-anchor="middle" x="1473" y="-647.88" font-family="Verdana" font-size="7.00" fill="#000000">__main__</text>
<text text-anchor="middle" x="1473" y="-639.373" font-family="Verdana" font-size="7.00" fill="#000000">calls: 1</text>
<text text-anchor="middle" x="1473" y="-630.866" font-family="Verdana" font-size="7.00" fill="#000000">time: 0.000000s</text>
</g>
<!-- __main__&#45;&gt;kotti.filedepot.TweenFactory.__call__ -->
<g id="edge8" class="edge"><title>__main__&#45;&gt;kotti.filedepot.TweenFactory.__call__</title>
<path fill="none" stroke="#b23aaf" d="M1473,-622.438C1473,-608.006 1473,-587.167 1473,-570.462"/>
<polygon fill="#b23aaf" stroke="#b23aaf" points="1476.5,-570.19 1473,-560.19 1469.5,-570.19 1476.5,-570.19"/>
<text text-anchor="middle" x="1475.23" y="-599.119" font-family="Verdana" font-size="7.00" fill="#000000">1</text>
</g>
</g>
</svg>
