<?xml version="1.0" encoding="UTF-8" standalone="no"?>
<!DOCTYPE svg PUBLIC "-//W3C//DTD SVG 1.1//EN"
 "http://www.w3.org/Graphics/SVG/1.1/DTD/svg11.dtd">
<!-- Generated by graphviz version 2.38.0 (20140413.2041)
 -->
<!-- Title: G Pages: 1 -->
<svg width="590pt" height="381pt"
 viewBox="0.00 0.00 590.00 380.84" xmlns="http://www.w3.org/2000/svg" xmlns:xlink="http://www.w3.org/1999/xlink">
<g id="graph0" class="graph" transform="scale(1 1) rotate(0) translate(4 376.843)">
<title>G</title>
<polygon fill="white" stroke="none" points="-4,4 -4,-376.843 586,-376.843 586,4 -4,4"/>
<text text-anchor="middle" x="291" y="-15.4146" font-family="Verdana" font-size="7.00" fill="#000000">Generated by Python Call Graph v1.0.1</text>
<text text-anchor="middle" x="291" y="-6.90732" font-family="Verdana" font-size="7.00" fill="#000000">http://pycallgraph.slowchop.com</text>
<g id="clust1" class="cluster"><title>cluster_kotti</title>
<polygon fill="none" stroke="#000000" stroke-width="2" stroke-opacity="0.800000" points="8,-33.0146 8,-266.183 574,-266.183 574,-33.0146 8,-33.0146"/>
<text text-anchor="middle" x="291" y="-254.183" font-family="Verdana" font-size="10.00">kotti</text>
</g>
<g id="clust2" class="cluster"><title>cluster___main__</title>
<polygon fill="none" stroke="#000000" stroke-width="2" stroke-opacity="0.800000" points="238,-292.69 238,-364.843 328,-364.843 328,-292.69 238,-292.69"/>
<text text-anchor="middle" x="283" y="-352.843" font-family="Verdana" font-size="10.00">__main__</text>
</g>
<!-- kotti.filedepot.TweenFactory.__call__ -->
<g id="node1" class="node"><title>kotti.filedepot.TweenFactory.__call__</title>
<polygon fill="#e52685" stroke="#e52685" points="356.413,-238.029 209.587,-238.029 209.587,-202.029 356.413,-202.029 356.413,-238.029"/>
<text text-anchor="middle" x="283" y="-227.19" font-family="Verdana" font-size="7.00" fill="#000000">kotti.filedepot.TweenFactory.__call__</text>
<text text-anchor="middle" x="283" y="-218.683" font-family="Verdana" font-size="7.00" fill="#000000">calls: 1</text>
<text text-anchor="middle" x="283" y="-210.176" font-family="Verdana" font-size="7.00" fill="#000000">time: 0.044785s</text>
</g>
<!-- kotti.filedepot.DBStoredFile.public_url -->
<g id="node2" class="node"><title>kotti.filedepot.DBStoredFile.public_url</title>
<polygon fill="#9998e5" stroke="#9998e5" points="165.739,-77.0146 16.2615,-77.0146 16.2615,-41.0146 165.739,-41.0146 165.739,-77.0146"/>
<text text-anchor="middle" x="91" y="-66.1756" font-family="Verdana" font-size="7.00" fill="#000000">kotti.filedepot.DBStoredFile.public_url</text>
<text text-anchor="middle" x="91" y="-57.6683" font-family="Verdana" font-size="7.00" fill="#000000">calls: 2</text>
<text text-anchor="middle" x="91" y="-49.161" font-family="Verdana" font-size="7.00" fill="#000000">time: 0.000010s</text>
</g>
<!-- kotti.filedepot.TweenFactory.__call__&#45;&gt;kotti.filedepot.DBStoredFile.public_url -->
<g id="edge1" class="edge"><title>kotti.filedepot.TweenFactory.__call__&#45;&gt;kotti.filedepot.DBStoredFile.public_url</title>
<path fill="none" stroke="#94a3b2" d="M251.879,-201.949C232.088,-190.479 206.363,-174.419 185.55,-157.522 158.075,-135.217 130.319,-105.553 112.054,-84.8242"/>
<polygon fill="#94a3b2" stroke="#94a3b2" points="114.514,-82.3192 105.305,-77.0797 109.237,-86.9182 114.514,-82.3192"/>
<text text-anchor="middle" x="187.225" y="-138.176" font-family="Verdana" font-size="7.00" fill="#000000">1</text>
</g>
<!-- kotti.filedepot.StoredFileResponse.__init__ -->
<g id="node3" class="node"><title>kotti.filedepot.StoredFileResponse.__init__</title>
<polygon fill="#b1c1e5" stroke="#b1c1e5" points="366.817,-157.522 199.183,-157.522 199.183,-121.522 366.817,-121.522 366.817,-157.522"/>
<text text-anchor="middle" x="283" y="-146.683" font-family="Verdana" font-size="7.00" fill="#000000">kotti.filedepot.StoredFileResponse.__init__</text>
<text text-anchor="middle" x="283" y="-138.176" font-family="Verdana" font-size="7.00" fill="#000000">calls: 1</text>
<text text-anchor="middle" x="283" y="-129.668" font-family="Verdana" font-size="7.00" fill="#000000">time: 0.004096s</text>
</g>
<!-- kotti.filedepot.TweenFactory.__call__&#45;&gt;kotti.filedepot.StoredFileResponse.__init__ -->
<g id="edge2" class="edge"><title>kotti.filedepot.TweenFactory.__call__&#45;&gt;kotti.filedepot.StoredFileResponse.__init__</title>
<path fill="none" stroke="#8996b2" d="M283,-201.994C283,-192.015 283,-179.18 283,-167.82"/>
<polygon fill="#8996b2" stroke="#8996b2" points="286.5,-167.524 283,-157.524 279.5,-167.524 286.5,-167.524"/>
<text text-anchor="middle" x="285.225" y="-178.429" font-family="Verdana" font-size="7.00" fill="#000000">1</text>
</g>
<!-- kotti.filedepot.DBFileStorage.get -->
<g id="node7" class="node"><title>kotti.filedepot.DBFileStorage.get</title>
<polygon fill="#e538b9" stroke="#e538b9" points="515.18,-157.522 384.82,-157.522 384.82,-121.522 515.18,-121.522 515.18,-157.522"/>
<text text-anchor="middle" x="450" y="-146.683" font-family="Verdana" font-size="7.00" fill="#000000">kotti.filedepot.DBFileStorage.get</text>
<text text-anchor="middle" x="450" y="-138.176" font-family="Verdana" font-size="7.00" fill="#000000">calls: 1</text>
<text text-anchor="middle" x="450" y="-129.668" font-family="Verdana" font-size="7.00" fill="#000000">time: 0.039316s</text>
</g>
<!-- kotti.filedepot.TweenFactory.__call__&#45;&gt;kotti.filedepot.DBFileStorage.get -->
<g id="edge3" class="edge"><title>kotti.filedepot.TweenFactory.__call__&#45;&gt;kotti.filedepot.DBFileStorage.get</title>
<path fill="none" stroke="#b22c90" d="M319.237,-201.994C344.294,-190.215 377.818,-174.455 404.648,-161.842"/>
<polygon fill="#b22c90" stroke="#b22c90" points="406.273,-164.946 413.834,-157.524 403.295,-158.611 406.273,-164.946"/>
<text text-anchor="middle" x="378.225" y="-178.429" font-family="Verdana" font-size="7.00" fill="#000000">1</text>
</g>
<!-- kotti.filedepot.StoredFileResponse.__init__&#45;&gt;kotti.filedepot.DBStoredFile.public_url -->
<g id="edge5" class="edge"><title>kotti.filedepot.StoredFileResponse.__init__&#45;&gt;kotti.filedepot.DBStoredFile.public_url</title>
<path fill="none" stroke="#94a3b2" d="M241.339,-121.487C212.153,-109.553 172.977,-93.5342 141.933,-80.8407"/>
<polygon fill="#94a3b2" stroke="#94a3b2" points="143.161,-77.5615 132.58,-77.0163 140.511,-84.0408 143.161,-77.5615"/>
<text text-anchor="middle" x="194.225" y="-97.922" font-family="Verdana" font-size="7.00" fill="#000000">1</text>
</g>
<!-- kotti.filedepot.StoredFileResponse._get_type_and_encoding -->
<g id="node5" class="node"><title>kotti.filedepot.StoredFileResponse._get_type_and_encoding</title>
<polygon fill="#bfd2e5" stroke="#bfd2e5" points="411.539,-77.0146 184.461,-77.0146 184.461,-41.0146 411.539,-41.0146 411.539,-77.0146"/>
<text text-anchor="middle" x="298" y="-66.1756" font-family="Verdana" font-size="7.00" fill="#000000">kotti.filedepot.StoredFileResponse._get_type_and_encoding</text>
<text text-anchor="middle" x="298" y="-57.6683" font-family="Verdana" font-size="7.00" fill="#000000">calls: 1</text>
<text text-anchor="middle" x="298" y="-49.161" font-family="Verdana" font-size="7.00" fill="#000000">time: 0.000050s</text>
</g>
<!-- kotti.filedepot.StoredFileResponse.__init__&#45;&gt;kotti.filedepot.StoredFileResponse._get_type_and_encoding -->
<g id="edge4" class="edge"><title>kotti.filedepot.StoredFileResponse.__init__&#45;&gt;kotti.filedepot.StoredFileResponse._get_type_and_encoding</title>
<path fill="none" stroke="#94a3b2" d="M286.255,-121.487C288.181,-111.405 290.665,-98.4073 292.851,-86.9623"/>
<polygon fill="#94a3b2" stroke="#94a3b2" points="296.313,-87.4955 294.752,-77.0163 289.437,-86.1818 296.313,-87.4955"/>
<text text-anchor="middle" x="292.225" y="-97.922" font-family="Verdana" font-size="7.00" fill="#000000">1</text>
</g>
<!-- kotti.filedepot.type.generate_etag -->
<g id="node6" class="node"><title>kotti.filedepot.type.generate_etag</title>
<polygon fill="#bfd2e5" stroke="#bfd2e5" points="566.241,-77.0146 429.759,-77.0146 429.759,-41.0146 566.241,-41.0146 566.241,-77.0146"/>
<text text-anchor="middle" x="498" y="-66.1756" font-family="Verdana" font-size="7.00" fill="#000000">kotti.filedepot.type.generate_etag</text>
<text text-anchor="middle" x="498" y="-57.6683" font-family="Verdana" font-size="7.00" fill="#000000">calls: 1</text>
<text text-anchor="middle" x="498" y="-49.161" font-family="Verdana" font-size="7.00" fill="#000000">time: 0.000063s</text>
</g>
<!-- kotti.filedepot.StoredFileResponse.__init__&#45;&gt;kotti.filedepot.type.generate_etag -->
<g id="edge6" class="edge"><title>kotti.filedepot.StoredFileResponse.__init__&#45;&gt;kotti.filedepot.type.generate_etag</title>
<path fill="none" stroke="#94a3b2" d="M329.652,-121.487C362.615,-109.45 406.96,-93.2578 441.863,-80.5132"/>
<polygon fill="#94a3b2" stroke="#94a3b2" points="443.246,-83.7341 451.439,-77.0163 440.845,-77.1587 443.246,-83.7341"/>
<text text-anchor="middle" x="398.225" y="-97.922" font-family="Verdana" font-size="7.00" fill="#000000">1</text>
</g>
<!-- kotti.filedepot.adjust_for_engine -->
<g id="node4" class="node"><title>kotti.filedepot.adjust_for_engine</title>
<polygon fill="#bfd2e5" stroke="#bfd2e5" points="176.614,-238.029 45.3862,-238.029 45.3862,-202.029 176.614,-202.029 176.614,-238.029"/>
<text text-anchor="middle" x="111" y="-227.19" font-family="Verdana" font-size="7.00" fill="#000000">kotti.filedepot.adjust_for_engine</text>
<text text-anchor="middle" x="111" y="-218.683" font-family="Verdana" font-size="7.00" fill="#000000">calls: 1</text>
<text text-anchor="middle" x="111" y="-210.176" font-family="Verdana" font-size="7.00" fill="#000000">time: 0.000040s</text>
</g>
<!-- __main__ -->
<g id="node8" class="node"><title>__main__</title>
<polygon fill="#bfd2e5" stroke="#bfd2e5" points="320.143,-336.69 245.857,-336.69 245.857,-300.69 320.143,-300.69 320.143,-336.69"/>
<text text-anchor="middle" x="283" y="-325.851" font-family="Verdana" font-size="7.00" fill="#000000">__main__</text>
<text text-anchor="middle" x="283" y="-317.344" font-family="Verdana" font-size="7.00" fill="#000000">calls: 1</text>
<text text-anchor="middle" x="283" y="-308.836" font-family="Verdana" font-size="7.00" fill="#000000">time: 0.000000s</text>
</g>
<!-- __main__&#45;&gt;kotti.filedepot.TweenFactory.__call__ -->
<g id="edge7" class="edge"><title>__main__&#45;&gt;kotti.filedepot.TweenFactory.__call__</title>
<path fill="none" stroke="#b21d68" d="M283,-300.409C283,-285.976 283,-265.137 283,-248.432"/>
<polygon fill="#b21d68" stroke="#b21d68" points="286.5,-248.161 283,-238.161 279.5,-248.161 286.5,-248.161"/>
<text text-anchor="middle" x="285.225" y="-277.09" font-family="Verdana" font-size="7.00" fill="#000000">1</text>
</g>
</g>
</svg>
